<svg xmlns="http://www.w3.org/2000/svg" xmlns:xlink="http://www.w3.org/1999/xlink" width="100" zoomAndPan="magnify" viewBox="0 0 75 74.999997" height="100" preserveAspectRatio="xMidYMid meet" version="1.0"><defs><g/><clipPath id="67c8fdf6c4"><path d="M 31 14.257812 L 36 14.257812 L 36 19 L 31 19 Z M 31 14.257812 " clip-rule="nonzero"/></clipPath><clipPath id="a1f9fb6e71"><path d="M 29 19 L 42 19 L 42 33.007812 L 29 33.007812 Z M 29 19 " clip-rule="nonzero"/></clipPath><clipPath id="1d5e6ede89"><path d="M 24 14.257812 L 28 14.257812 L 28 19 L 24 19 Z M 24 14.257812 " clip-rule="nonzero"/></clipPath><clipPath id="62ffe332da"><path d="M 23 14.257812 L 28 14.257812 L 28 19 L 23 19 Z M 23 14.257812 " clip-rule="nonzero"/></clipPath></defs><g fill="#231f20" fill-opacity="1"><g transform="translate(16.795401, 35.6836)"><g><path d="M 0.507812 0.144531 C 3.402344 0.304688 5.78125 0.320312 6.835938 -0.535156 C 7.328125 -0.941406 7.632812 -1.519531 7.777344 -2.128906 C 8.113281 -3.503906 7.589844 -4.695312 6.199219 -5.359375 C 5.707031 -5.578125 5.15625 -5.765625 4.808594 -5.9375 C 4.199219 -6.242188 4.347656 -6.734375 4.808594 -6.953125 C 5.214844 -7.140625 6.257812 -7.011719 6.925781 -7.011719 C 7.316406 -7.011719 7.546875 -7.199219 7.546875 -7.53125 C 7.574219 -9.546875 7.605469 -9.820312 7.429688 -10.039062 C 7.171875 -10.355469 4.882812 -10.355469 4.230469 -10.328125 C 3.1875 -10.285156 1.855469 -10.199219 1.058594 -9.5625 C 0.246094 -8.921875 0 -8.082031 0 -7.039062 C 0 -5.636719 0.8125 -4.96875 2.679688 -4.273438 C 3.652344 -3.910156 3.621094 -3.171875 2.636719 -3.128906 C 1.855469 -3.101562 0.117188 -3.402344 0.117188 -2.679688 L 0.117188 -0.535156 C 0.117188 -0.1875 0.203125 0.0742188 0.507812 0.144531 Z M 0.507812 0.144531 "/></g></g></g><g fill="#231f20" fill-opacity="1"><g transform="translate(25.254894, 35.6836)"><g><path d="M 7.984375 -3.890625 C 7.984375 -2.609375 7.65625 -1.613281 7 -0.90625 C 6.351562 -0.207031 5.472656 0.140625 4.359375 0.140625 C 3.671875 0.140625 3.054688 -0.015625 2.515625 -0.328125 C 1.984375 -0.640625 1.5625 -1.097656 1.25 -1.703125 C 0.945312 -2.304688 0.796875 -3.035156 0.796875 -3.890625 C 0.796875 -5.179688 1.113281 -6.171875 1.75 -6.859375 C 2.394531 -7.554688 3.28125 -7.90625 4.40625 -7.90625 C 5.101562 -7.90625 5.71875 -7.75 6.25 -7.4375 C 6.789062 -7.125 7.210938 -6.671875 7.515625 -6.078125 C 7.828125 -5.484375 7.984375 -4.753906 7.984375 -3.890625 Z M 2.109375 -3.890625 C 2.109375 -2.972656 2.289062 -2.242188 2.65625 -1.703125 C 3.019531 -1.171875 3.597656 -0.90625 4.390625 -0.90625 C 5.171875 -0.90625 5.742188 -1.171875 6.109375 -1.703125 C 6.472656 -2.242188 6.65625 -2.972656 6.65625 -3.890625 C 6.65625 -4.804688 6.472656 -5.523438 6.109375 -6.046875 C 5.742188 -6.578125 5.164062 -6.84375 4.375 -6.84375 C 3.582031 -6.84375 3.003906 -6.578125 2.640625 -6.046875 C 2.285156 -5.523438 2.109375 -4.804688 2.109375 -3.890625 Z M 4.34375 2.546875 C 4.132812 2.546875 3.957031 2.476562 3.8125 2.34375 C 3.664062 2.207031 3.59375 2.003906 3.59375 1.734375 C 3.59375 1.453125 3.664062 1.242188 3.8125 1.109375 C 3.957031 0.984375 4.132812 0.921875 4.34375 0.921875 C 4.539062 0.921875 4.710938 0.984375 4.859375 1.109375 C 5.015625 1.242188 5.09375 1.453125 5.09375 1.734375 C 5.09375 2.003906 5.015625 2.207031 4.859375 2.34375 C 4.710938 2.476562 4.539062 2.546875 4.34375 2.546875 Z M 4.34375 2.546875 "/></g></g></g><g fill="#231f20" fill-opacity="1"><g transform="translate(34.018579, 35.6836)"><g><path d="M 0.492188 2.332031 L 2.332031 2.316406 C 2.476562 2.316406 2.59375 2.261719 2.695312 2.160156 C 2.796875 2.042969 2.839844 1.914062 2.839844 1.753906 L 2.898438 -0.0742188 C 5.707031 0.40625 7.070312 -0.898438 7.445312 -3.027344 C 7.675781 -4.332031 7.589844 -5.476562 6.996094 -6.53125 C 6.34375 -7.675781 4.851562 -8.113281 2.96875 -7.664062 C 2.96875 -7.675781 2.957031 -7.675781 2.957031 -7.691406 C 2.855469 -7.792969 2.722656 -7.851562 2.59375 -7.851562 L 0.523438 -7.867188 C 0.390625 -7.867188 0.273438 -7.808594 0.175781 -7.707031 C 0.0742188 -7.605469 0.0273438 -7.460938 0.0273438 -7.300781 L 0 1.765625 C 0 1.914062 0.0585938 2.042969 0.160156 2.160156 C 0.261719 2.273438 0.363281 2.332031 0.492188 2.332031 Z M 2.984375 -3.1875 L 2.984375 -3.214844 L 3.027344 -4.648438 L 3.027344 -4.984375 C 3.054688 -5.289062 3.113281 -5.460938 3.347656 -5.535156 C 4.113281 -5.824219 4.5625 -5.242188 4.578125 -4.144531 L 4.578125 -4.085938 C 4.578125 -2.941406 4.289062 -2.085938 3.503906 -2.359375 C 3.230469 -2.492188 2.96875 -2.957031 2.984375 -3.1875 Z M 2.984375 -3.1875 "/></g></g></g><g fill="#231f20" fill-opacity="1"><g transform="translate(42.159388, 35.6836)"><g><path d="M 0.523438 0.0273438 L 2.59375 0.015625 C 2.722656 0.015625 2.855469 -0.0429688 2.957031 -0.160156 C 2.957031 -0.160156 2.96875 -0.160156 2.96875 -0.175781 C 4.824219 0.320312 6.128906 0.203125 6.78125 -0.941406 C 7.375 -2 7.675781 -3.503906 7.445312 -4.808594 C 7.070312 -6.9375 5.707031 -8.242188 2.898438 -7.765625 L 2.839844 -9.589844 C 2.839844 -9.75 2.796875 -9.878906 2.695312 -9.996094 C 2.59375 -10.097656 2.476562 -10.15625 2.332031 -10.15625 L 0.492188 -10.167969 C 0.363281 -10.167969 0.261719 -10.109375 0.160156 -9.996094 C 0.0585938 -9.878906 0 -9.75 0 -9.605469 L 0.0273438 -0.535156 C 0.0273438 -0.375 0.0742188 -0.230469 0.175781 -0.128906 C 0.273438 -0.0273438 0.390625 0.0273438 0.523438 0.0273438 Z M 2.984375 -4.621094 L 2.984375 -4.648438 C 2.96875 -4.882812 3.230469 -5.34375 3.503906 -5.476562 C 4.289062 -5.75 4.578125 -4.894531 4.578125 -3.75 L 4.578125 -3.695312 C 4.5625 -2.59375 4.113281 -2.011719 3.347656 -2.304688 C 3.113281 -2.375 3.054688 -2.550781 3.027344 -2.855469 L 3.027344 -3.1875 Z M 2.984375 -4.621094 "/></g></g></g><g fill="#231f20" fill-opacity="1"><g transform="translate(50.256745, 35.6836)"><g><path d="M 4.894531 0.1875 C 6.621094 -0.203125 7.039062 -1.070312 7.039062 -2.144531 C 7.039062 -2.375 6.894531 -2.449219 6.621094 -2.476562 L 4.78125 -2.679688 C 4.519531 -2.722656 4.347656 -2.707031 4.332031 -2.476562 C 4.332031 -2.347656 4.300781 -2.246094 4.027344 -2.113281 C 3.402344 -1.882812 3.171875 -2.390625 3.101562 -3.203125 L 7.082031 -3.203125 C 7.199219 -3.203125 7.285156 -3.289062 7.285156 -3.402344 L 7.328125 -4.230469 C 7.445312 -5.214844 7.011719 -7.183594 5.097656 -7.675781 C 3.578125 -8.070312 1.8125 -7.648438 0.898438 -6.578125 C 0.0859375 -5.621094 -0.144531 -4.144531 0.0859375 -2.796875 C 0.507812 -0.550781 2.449219 0.738281 4.894531 0.1875 Z M 3.128906 -4.636719 C 3.257812 -5.300781 3.59375 -5.589844 4.246094 -5.375 C 4.519531 -5.242188 4.546875 -4.839844 4.546875 -4.636719 Z M 3.128906 -4.636719 "/></g></g></g><g clip-path="url(#67c8fdf6c4)"><path fill="#fdfdfd" d="M 31.90625 16.578125 C 31.90625 16.578125 32.035156 15.960938 32.382812 15.492188 C 32.851562 14.875 33.648438 14.398438 34.460938 14.914062 C 35.496094 15.582031 35.1875 16.625 34.691406 17.3125 C 34.363281 17.761719 33.894531 18.019531 33.894531 18.019531 Z M 31.90625 16.578125 " fill-opacity="1" fill-rule="nonzero"/><path fill="#231f20" d="M 33.894531 18.136719 C 33.914062 18.136719 33.933594 18.136719 33.957031 18.128906 C 33.976562 18.117188 34.453125 17.851562 34.789062 17.382812 C 35.167969 16.855469 35.339844 16.277344 35.25 15.808594 C 35.167969 15.414062 34.929688 15.085938 34.53125 14.824219 C 33.648438 14.257812 32.78125 14.796875 32.304688 15.433594 C 31.9375 15.917969 31.804688 16.535156 31.804688 16.566406 C 31.796875 16.625 31.835938 16.6875 31.894531 16.707031 C 31.957031 16.714844 32.015625 16.675781 32.035156 16.617188 C 32.035156 16.605469 32.164062 16.019531 32.492188 15.570312 C 32.929688 14.996094 33.667969 14.535156 34.414062 15.023438 C 34.761719 15.242188 34.96875 15.53125 35.03125 15.859375 C 35.109375 16.277344 34.960938 16.785156 34.613281 17.261719 C 34.304688 17.691406 33.855469 17.9375 33.847656 17.9375 C 33.785156 17.96875 33.765625 18.039062 33.796875 18.097656 C 33.816406 18.117188 33.855469 18.136719 33.894531 18.136719 Z M 33.894531 18.136719 " fill-opacity="1" fill-rule="nonzero"/></g><path fill="#fdfdfd" d="M 33.804688 15.871094 C 33.804688 15.871094 33.277344 16.179688 33.078125 16.796875 Z M 33.804688 15.871094 " fill-opacity="1" fill-rule="nonzero"/><path fill="#231f20" d="M 33.078125 16.90625 C 33.128906 16.90625 33.167969 16.875 33.1875 16.824219 C 33.367188 16.257812 33.855469 15.960938 33.855469 15.960938 C 33.914062 15.929688 33.925781 15.859375 33.894531 15.800781 C 33.867188 15.75 33.796875 15.730469 33.738281 15.761719 C 33.714844 15.769531 33.167969 16.097656 32.960938 16.753906 C 32.941406 16.816406 32.96875 16.875 33.039062 16.894531 C 33.058594 16.90625 33.070312 16.90625 33.078125 16.90625 Z M 33.078125 16.90625 " fill-opacity="1" fill-rule="nonzero"/><path fill="#fdfdfd" d="M 41.824219 28.167969 C 41.824219 28.167969 41.117188 24.496094 39.664062 23.25 C 38.214844 22.019531 31.011719 20.039062 31.011719 20.039062 L 33.835938 26.574219 C 33.835938 26.574219 30.75 27.929688 30.214844 29.289062 C 29.585938 30.851562 29.378906 31.152344 29.378906 31.945312 C 29.378906 31.945312 29.617188 33 30.355469 33 C 31.089844 33 31.894531 32.953125 32.582031 32.253906 C 32.871094 31.957031 33.210938 31.25 33.210938 31.25 L 35.230469 30.671875 C 35.230469 30.671875 37.128906 30.316406 37.964844 28.960938 C 38.183594 28.613281 38.253906 28.175781 38.253906 28.175781 Z M 41.824219 28.167969 " fill-opacity="1" fill-rule="nonzero"/><g clip-path="url(#a1f9fb6e71)"><path fill="#231f20" d="M 30.34375 33.109375 C 29.527344 33.109375 29.269531 32.015625 29.257812 31.96875 C 29.257812 31.289062 29.390625 30.960938 29.757812 30.085938 C 29.855469 29.847656 29.964844 29.578125 30.105469 29.242188 C 30.613281 27.976562 33.128906 26.765625 33.6875 26.515625 L 30.902344 20.089844 C 30.882812 20.046875 30.890625 20 30.921875 19.96875 C 30.949219 19.9375 30.992188 19.929688 31.039062 19.929688 C 31.339844 20.007812 38.292969 21.929688 39.746094 23.164062 C 41.207031 24.40625 41.914062 27.988281 41.933594 28.136719 C 41.945312 28.167969 41.933594 28.207031 41.914062 28.226562 C 41.894531 28.257812 41.863281 28.265625 41.824219 28.265625 L 38.332031 28.265625 C 38.304688 28.414062 38.214844 28.734375 38.042969 29.003906 C 37.1875 30.386719 35.316406 30.753906 35.238281 30.761719 L 33.277344 31.320312 C 33.199219 31.488281 32.910156 32.046875 32.652344 32.316406 C 31.957031 33.050781 31.128906 33.109375 30.34375 33.109375 Z M 29.488281 31.945312 C 29.488281 31.945312 29.71875 32.890625 30.34375 32.890625 C 31.109375 32.890625 31.855469 32.832031 32.484375 32.175781 C 32.75 31.898438 33.089844 31.199219 33.089844 31.199219 C 33.101562 31.171875 33.128906 31.152344 33.160156 31.140625 L 35.179688 30.5625 C 35.207031 30.554688 37.050781 30.195312 37.84375 28.902344 C 38.042969 28.574219 38.113281 28.15625 38.113281 28.15625 C 38.125 28.097656 38.171875 28.058594 38.222656 28.058594 L 41.664062 28.058594 C 41.527344 27.390625 40.820312 24.40625 39.578125 23.351562 C 38.304688 22.265625 32.433594 20.574219 31.191406 20.226562 L 33.925781 26.542969 C 33.945312 26.605469 33.925781 26.675781 33.867188 26.695312 C 33.835938 26.703125 30.820312 28.046875 30.304688 29.339844 C 30.175781 29.667969 30.054688 29.949219 29.957031 30.1875 C 29.609375 31.042969 29.488281 31.339844 29.488281 31.945312 Z M 29.488281 31.945312 " fill-opacity="1" fill-rule="nonzero"/></g><path fill="#fdfdfd" d="M 28.273438 28.476562 L 26.425781 27.050781 L 24.722656 22.089844 C 24.722656 22.089844 23.171875 23.886719 22.714844 26.046875 C 22.246094 28.207031 22.960938 29.28125 23.886719 29.558594 C 24.800781 29.839844 25.679688 29.757812 25.679688 29.757812 C 25.679688 29.757812 26.574219 30.992188 27.628906 30.585938 C 28.523438 30.234375 28.832031 29.222656 28.273438 28.476562 Z M 28.273438 28.476562 " fill-opacity="1" fill-rule="nonzero"/><path fill="#231f20" d="M 27.179688 30.78125 C 26.402344 30.78125 25.789062 30.078125 25.628906 29.878906 C 25.410156 29.886719 24.652344 29.917969 23.847656 29.667969 C 23.398438 29.53125 21.988281 28.863281 22.59375 26.019531 C 23.050781 23.867188 24.613281 22.039062 24.632812 22.019531 C 24.664062 21.988281 24.703125 21.96875 24.742188 21.976562 C 24.78125 21.988281 24.8125 22.019531 24.832031 22.058594 L 26.523438 26.984375 L 28.34375 28.386719 C 28.355469 28.394531 28.363281 28.394531 28.363281 28.40625 C 28.644531 28.785156 28.730469 29.25 28.601562 29.6875 C 28.472656 30.144531 28.125 30.503906 27.65625 30.695312 C 27.5 30.753906 27.339844 30.78125 27.179688 30.78125 Z M 25.679688 29.640625 C 25.71875 29.640625 25.746094 29.660156 25.765625 29.6875 C 25.777344 29.699219 26.621094 30.84375 27.578125 30.476562 C 27.976562 30.316406 28.273438 30.007812 28.382812 29.617188 C 28.484375 29.261719 28.414062 28.871094 28.183594 28.554688 L 26.355469 27.140625 C 26.335938 27.132812 26.324219 27.113281 26.316406 27.09375 L 24.671875 22.316406 C 24.296875 22.792969 23.179688 24.328125 22.8125 26.066406 C 22.433594 27.859375 22.84375 29.121094 23.917969 29.449219 C 24.800781 29.71875 25.65625 29.640625 25.667969 29.640625 C 25.667969 29.640625 25.679688 29.640625 25.679688 29.640625 Z M 25.679688 29.640625 " fill-opacity="1" fill-rule="nonzero"/><path fill="#fdfdfd" d="M 25.917969 16.796875 C 25 17.390625 23.808594 19.242188 23.5 21.3125 C 23.21875 23.183594 23.429688 24.15625 24.027344 25.222656 C 24.742188 26.503906 26.5625 27.441406 28.722656 27.441406 C 30.882812 27.441406 31.628906 27.5 33.25 27.101562 C 34.871094 26.703125 37.160156 25.050781 35.734375 21.859375 C 35.734375 21.859375 35.496094 18.355469 33.515625 16.804688 C 32.5625 16.167969 31.9375 15.671875 30.09375 15.601562 C 28.253906 15.523438 26.644531 16.316406 25.917969 16.796875 Z M 25.917969 16.796875 " fill-opacity="1" fill-rule="nonzero"/><path fill="#231f20" d="M 29.976562 27.550781 C 29.804688 27.550781 29.628906 27.550781 29.429688 27.550781 L 28.722656 27.550781 C 26.613281 27.550781 24.683594 26.632812 23.925781 25.269531 C 23.371094 24.265625 23.101562 23.292969 23.390625 21.292969 C 23.6875 19.234375 24.882812 17.34375 25.855469 16.695312 C 26.8125 16.058594 28.433594 15.402344 30.09375 15.472656 C 31.855469 15.542969 32.53125 16 33.398438 16.578125 L 33.578125 16.695312 C 35.527344 18.226562 35.816406 21.5 35.84375 21.820312 C 36.402344 23.074219 36.441406 24.195312 35.976562 25.160156 C 35.40625 26.316406 34.214844 26.972656 33.277344 27.203125 C 32.003906 27.519531 31.269531 27.550781 29.976562 27.550781 Z M 25.917969 16.796875 L 25.976562 16.894531 C 25.042969 17.511719 23.898438 19.34375 23.609375 21.332031 C 23.320312 23.28125 23.570312 24.175781 24.117188 25.171875 C 24.84375 26.464844 26.683594 27.332031 28.710938 27.332031 L 29.417969 27.332031 C 31.039062 27.332031 31.796875 27.339844 33.210938 26.992188 C 34.09375 26.773438 35.230469 26.15625 35.757812 25.074219 C 36.195312 24.167969 36.152344 23.101562 35.617188 21.910156 C 35.605469 21.898438 35.605469 21.878906 35.605469 21.867188 C 35.605469 21.839844 35.347656 18.398438 33.4375 16.894531 L 33.269531 16.785156 C 32.402344 16.207031 31.777344 15.789062 30.085938 15.722656 C 28.015625 15.609375 26.304688 16.675781 25.984375 16.882812 Z M 25.917969 16.796875 " fill-opacity="1" fill-rule="nonzero"/><path fill="#fdfdfd" d="M 28.273438 25.371094 C 28.273438 25.371094 28.882812 25.648438 29.167969 24.992188 Z M 28.273438 25.371094 " fill-opacity="1" fill-rule="nonzero"/><path fill="#231f20" d="M 28.574219 25.539062 C 28.382812 25.539062 28.246094 25.46875 28.234375 25.46875 C 28.175781 25.441406 28.15625 25.382812 28.175781 25.320312 C 28.203125 25.261719 28.265625 25.230469 28.324219 25.261719 C 28.324219 25.261719 28.542969 25.359375 28.753906 25.28125 C 28.882812 25.230469 28.992188 25.121094 29.070312 24.941406 C 29.089844 24.882812 29.160156 24.855469 29.21875 24.882812 C 29.28125 24.914062 29.300781 24.972656 29.28125 25.03125 C 29.179688 25.261719 29.03125 25.410156 28.832031 25.492188 C 28.742188 25.53125 28.652344 25.539062 28.574219 25.539062 Z M 28.574219 25.539062 " fill-opacity="1" fill-rule="nonzero"/><path fill="#fdfdfd" d="M 29.828125 26.496094 C 29.828125 26.496094 29.128906 26.433594 28.832031 25.371094 Z M 29.828125 26.496094 " fill-opacity="1" fill-rule="nonzero"/><path fill="#231f20" d="M 29.828125 26.613281 C 29.816406 26.613281 29.816406 26.613281 29.828125 26.613281 C 29.785156 26.613281 29.039062 26.535156 28.722656 25.410156 C 28.703125 25.351562 28.742188 25.292969 28.800781 25.269531 C 28.871094 25.261719 28.921875 25.292969 28.941406 25.351562 C 29.210938 26.316406 29.804688 26.386719 29.835938 26.394531 C 29.894531 26.40625 29.945312 26.457031 29.9375 26.515625 C 29.9375 26.566406 29.886719 26.613281 29.828125 26.613281 Z M 29.828125 26.613281 " fill-opacity="1" fill-rule="nonzero"/><path fill="#231f20" d="M 29.917969 22.089844 C 29.917969 22.238281 29.863281 22.367188 29.753906 22.476562 C 29.648438 22.582031 29.519531 22.636719 29.367188 22.636719 C 29.21875 22.636719 29.089844 22.582031 28.980469 22.476562 C 28.875 22.367188 28.820312 22.238281 28.820312 22.089844 C 28.820312 21.9375 28.875 21.808594 28.980469 21.699219 C 29.089844 21.59375 29.21875 21.539062 29.367188 21.539062 C 29.519531 21.539062 29.648438 21.59375 29.753906 21.699219 C 29.863281 21.808594 29.917969 21.9375 29.917969 22.089844 Z M 29.917969 22.089844 " fill-opacity="1" fill-rule="nonzero"/><path fill="#231f20" d="M 35.496094 22.089844 C 35.496094 22.238281 35.445312 22.367188 35.335938 22.476562 C 35.230469 22.582031 35.101562 22.636719 34.949219 22.636719 C 34.800781 22.636719 34.671875 22.582031 34.5625 22.476562 C 34.457031 22.367188 34.402344 22.238281 34.402344 22.089844 C 34.402344 21.9375 34.457031 21.808594 34.5625 21.699219 C 34.671875 21.59375 34.800781 21.539062 34.949219 21.539062 C 35.101562 21.539062 35.230469 21.59375 35.335938 21.699219 C 35.445312 21.808594 35.496094 21.9375 35.496094 22.089844 Z M 35.496094 22.089844 " fill-opacity="1" fill-rule="nonzero"/><g clip-path="url(#1d5e6ede89)"><path fill="#fdfdfd" d="M 27.28125 16.578125 C 27.28125 16.578125 27.148438 15.960938 26.800781 15.492188 C 26.335938 14.863281 25.527344 14.398438 24.722656 14.914062 C 23.6875 15.582031 23.996094 16.625 24.492188 17.3125 C 24.824219 17.761719 25.289062 18.019531 25.289062 18.019531 Z M 27.28125 16.578125 " fill-opacity="1" fill-rule="nonzero"/></g><g clip-path="url(#62ffe332da)"><path fill="#231f20" d="M 25.289062 18.136719 C 25.269531 18.136719 25.25 18.136719 25.230469 18.128906 C 25.210938 18.117188 24.734375 17.851562 24.394531 17.382812 C 24.015625 16.855469 23.847656 16.277344 23.9375 15.808594 C 24.015625 15.414062 24.253906 15.085938 24.652344 14.824219 C 25.539062 14.257812 26.402344 14.796875 26.882812 15.433594 C 27.25 15.917969 27.378906 16.535156 27.378906 16.566406 C 27.390625 16.625 27.347656 16.6875 27.289062 16.707031 C 27.230469 16.714844 27.171875 16.675781 27.148438 16.617188 C 27.148438 16.605469 27.019531 16.019531 26.691406 15.570312 C 26.265625 14.972656 25.527344 14.527344 24.78125 15.003906 C 24.433594 15.222656 24.226562 15.511719 24.164062 15.839844 C 24.085938 16.257812 24.234375 16.765625 24.582031 17.242188 C 24.890625 17.671875 25.339844 17.917969 25.347656 17.917969 C 25.410156 17.949219 25.429688 18.019531 25.398438 18.078125 C 25.371094 18.117188 25.328125 18.136719 25.289062 18.136719 Z M 25.289062 18.136719 " fill-opacity="1" fill-rule="nonzero"/></g><path fill="#fdfdfd" d="M 25.378906 15.871094 C 25.378906 15.871094 25.90625 16.179688 26.105469 16.796875 Z M 25.378906 15.871094 " fill-opacity="1" fill-rule="nonzero"/><path fill="#231f20" d="M 26.097656 16.90625 C 26.046875 16.90625 26.007812 16.875 25.984375 16.824219 C 25.808594 16.257812 25.320312 15.960938 25.320312 15.960938 C 25.261719 15.929688 25.25 15.859375 25.28125 15.800781 C 25.308594 15.75 25.378906 15.730469 25.4375 15.761719 C 25.460938 15.769531 26.007812 16.097656 26.214844 16.753906 C 26.234375 16.816406 26.207031 16.875 26.136719 16.894531 C 26.125 16.90625 26.117188 16.90625 26.097656 16.90625 Z M 26.097656 16.90625 " fill-opacity="1" fill-rule="nonzero"/><path fill="#231f20" d="M 35.21875 22.953125 C 35.21875 23.390625 34.710938 23.898438 34.085938 23.898438 C 33.457031 23.898438 32.949219 23.390625 32.949219 22.953125 C 32.949219 22.515625 33.457031 22.308594 34.085938 22.308594 C 34.710938 22.316406 35.21875 22.515625 35.21875 22.953125 Z M 35.21875 22.953125 " fill-opacity="1" fill-rule="nonzero"/><path fill="#231f20" d="M 34.304688 26.246094 C 34.242188 26.246094 34.195312 26.195312 34.195312 26.136719 L 34.195312 23.878906 C 34.195312 23.820312 34.242188 23.769531 34.304688 23.769531 C 34.363281 23.769531 34.414062 23.820312 34.414062 23.878906 L 34.414062 26.128906 C 34.421875 26.195312 34.363281 26.246094 34.304688 26.246094 Z M 34.304688 26.246094 " fill-opacity="1" fill-rule="nonzero"/><path fill="#fdfdfd" d="M 38.304688 28.066406 C 38.433594 27.847656 38.492188 27.191406 38.542969 26.941406 Z M 38.304688 28.066406 " fill-opacity="1" fill-rule="nonzero"/><path fill="#231f20" d="M 38.304688 28.175781 C 38.28125 28.175781 38.261719 28.167969 38.242188 28.15625 C 38.191406 28.125 38.171875 28.058594 38.203125 27.996094 C 38.292969 27.847656 38.351562 27.441406 38.382812 27.160156 C 38.390625 27.0625 38.414062 26.972656 38.421875 26.914062 C 38.433594 26.851562 38.492188 26.8125 38.550781 26.824219 C 38.609375 26.832031 38.652344 26.894531 38.640625 26.953125 C 38.632812 27.011719 38.621094 27.101562 38.601562 27.191406 C 38.550781 27.519531 38.5 27.929688 38.390625 28.105469 C 38.382812 28.15625 38.34375 28.175781 38.304688 28.175781 Z M 38.304688 28.175781 " fill-opacity="1" fill-rule="nonzero"/><g fill="#231f20" fill-opacity="1"><g transform="translate(2.047423, 44.646032)"><g><path d="M 2.78125 0.078125 C 2.3125 0.078125 1.894531 -0.0195312 1.53125 -0.21875 C 1.175781 -0.414062 0.898438 -0.707031 0.703125 -1.09375 C 0.503906 -1.488281 0.40625 -1.972656 0.40625 -2.546875 C 0.40625 -3.117188 0.503906 -3.597656 0.703125 -3.984375 C 0.898438 -4.378906 1.175781 -4.675781 1.53125 -4.875 C 1.894531 -5.070312 2.3125 -5.171875 2.78125 -5.171875 C 3.269531 -5.171875 3.6875 -5.070312 4.03125 -4.875 C 4.375 -4.6875 4.617188 -4.394531 4.765625 -4 L 4.03125 -3.5625 L 3.953125 -3.5625 C 3.835938 -3.820312 3.6875 -4.007812 3.5 -4.125 C 3.3125 -4.238281 3.070312 -4.296875 2.78125 -4.296875 C 2.363281 -4.296875 2.035156 -4.15625 1.796875 -3.875 C 1.554688 -3.601562 1.4375 -3.160156 1.4375 -2.546875 C 1.4375 -1.941406 1.554688 -1.5 1.796875 -1.21875 C 2.035156 -0.9375 2.363281 -0.796875 2.78125 -0.796875 C 3.445312 -0.796875 3.851562 -1.117188 4 -1.765625 L 4.09375 -1.765625 L 4.828125 -1.375 C 4.691406 -0.894531 4.453125 -0.53125 4.109375 -0.28125 C 3.773438 -0.0390625 3.332031 0.078125 2.78125 0.078125 Z M 2.78125 0.078125 "/></g></g></g><g fill="#231f20" fill-opacity="1"><g transform="translate(8.872267, 44.646032)"><g><path d="M 2.78125 0.078125 C 2.3125 0.078125 1.894531 -0.015625 1.53125 -0.203125 C 1.175781 -0.398438 0.898438 -0.691406 0.703125 -1.078125 C 0.503906 -1.472656 0.40625 -1.960938 0.40625 -2.546875 C 0.40625 -3.128906 0.503906 -3.613281 0.703125 -4 C 0.898438 -4.394531 1.175781 -4.6875 1.53125 -4.875 C 1.894531 -5.070312 2.3125 -5.171875 2.78125 -5.171875 C 3.25 -5.171875 3.660156 -5.078125 4.015625 -4.890625 C 4.367188 -4.703125 4.644531 -4.410156 4.84375 -4.015625 C 5.050781 -3.617188 5.15625 -3.128906 5.15625 -2.546875 C 5.15625 -1.960938 5.050781 -1.472656 4.84375 -1.078125 C 4.644531 -0.691406 4.367188 -0.398438 4.015625 -0.203125 C 3.660156 -0.015625 3.25 0.078125 2.78125 0.078125 Z M 2.78125 -0.796875 C 3.207031 -0.796875 3.535156 -0.9375 3.765625 -1.21875 C 3.992188 -1.5 4.109375 -1.941406 4.109375 -2.546875 C 4.109375 -3.160156 3.992188 -3.601562 3.765625 -3.875 C 3.535156 -4.15625 3.207031 -4.296875 2.78125 -4.296875 C 2.34375 -4.296875 2.007812 -4.15625 1.78125 -3.875 C 1.550781 -3.601562 1.4375 -3.160156 1.4375 -2.546875 C 1.4375 -1.941406 1.550781 -1.5 1.78125 -1.21875 C 2.007812 -0.9375 2.34375 -0.796875 2.78125 -0.796875 Z M 2.78125 -0.796875 "/></g></g></g><g fill="#231f20" fill-opacity="1"><g transform="translate(16.251243, 44.646032)"><g><path d="M 1.640625 0 L 0.65625 0 L 0.65625 -5.09375 L 1.8125 -5.09375 L 3.859375 -1.8125 L 3.953125 -1.828125 L 3.953125 -5.09375 L 4.921875 -5.09375 L 4.921875 0 L 3.890625 0 L 1.71875 -3.5 L 1.640625 -3.5 Z M 1.640625 0 "/></g></g></g><g fill="#231f20" fill-opacity="1"><g transform="translate(23.665071, 44.646032)"><g><path d="M 3.03125 0 L 1.8125 0 L 0.09375 -5.09375 L 1.15625 -5.09375 L 2.40625 -1.296875 L 2.484375 -1.296875 L 3.703125 -5.09375 L 4.75 -5.09375 Z M 3.03125 0 "/></g></g></g><g fill="#231f20" fill-opacity="1"><g transform="translate(30.329599, 44.646032)"><g><path d="M 1.671875 -2.234375 L 1.671875 -0.84375 L 4.109375 -0.84375 L 4.109375 0 L 0.65625 0 L 0.65625 -5.09375 L 4.046875 -5.09375 L 4.046875 -4.25 L 1.671875 -4.25 L 1.671875 -3.0625 L 3.75 -3.0625 L 3.75 -2.234375 Z M 1.671875 -2.234375 "/></g></g></g><g fill="#231f20" fill-opacity="1"><g transform="translate(36.537578, 44.646032)"><g><path d="M 1.640625 0 L 0.65625 0 L 0.65625 -5.09375 L 1.8125 -5.09375 L 3.859375 -1.8125 L 3.953125 -1.828125 L 3.953125 -5.09375 L 4.921875 -5.09375 L 4.921875 0 L 3.890625 0 L 1.71875 -3.5 L 1.640625 -3.5 Z M 1.640625 0 "/></g></g></g><g fill="#231f20" fill-opacity="1"><g transform="translate(43.951404, 44.646032)"><g><path d="M 1.671875 0 L 0.65625 0 L 0.65625 -5.09375 L 1.671875 -5.09375 Z M 1.671875 0 "/></g></g></g><g fill="#231f20" fill-opacity="1"><g transform="translate(48.113625, 44.646032)"><g><path d="M 1.671875 -2.234375 L 1.671875 -0.84375 L 4.109375 -0.84375 L 4.109375 0 L 0.65625 0 L 0.65625 -5.09375 L 4.046875 -5.09375 L 4.046875 -4.25 L 1.671875 -4.25 L 1.671875 -3.0625 L 3.75 -3.0625 L 3.75 -2.234375 Z M 1.671875 -2.234375 "/></g></g></g><g fill="#231f20" fill-opacity="1"><g transform="translate(54.321604, 44.646032)"><g><path d="M 1.640625 0 L 0.65625 0 L 0.65625 -5.09375 L 1.8125 -5.09375 L 3.859375 -1.8125 L 3.953125 -1.828125 L 3.953125 -5.09375 L 4.921875 -5.09375 L 4.921875 0 L 3.890625 0 L 1.71875 -3.5 L 1.640625 -3.5 Z M 1.640625 0 "/></g></g></g><g fill="#231f20" fill-opacity="1"><g transform="translate(61.73543, 44.646032)"><g><path d="M 2.78125 0.078125 C 2.3125 0.078125 1.894531 -0.0195312 1.53125 -0.21875 C 1.175781 -0.414062 0.898438 -0.707031 0.703125 -1.09375 C 0.503906 -1.488281 0.40625 -1.972656 0.40625 -2.546875 C 0.40625 -3.117188 0.503906 -3.597656 0.703125 -3.984375 C 0.898438 -4.378906 1.175781 -4.675781 1.53125 -4.875 C 1.894531 -5.070312 2.3125 -5.171875 2.78125 -5.171875 C 3.269531 -5.171875 3.6875 -5.070312 4.03125 -4.875 C 4.375 -4.6875 4.617188 -4.394531 4.765625 -4 L 4.03125 -3.5625 L 3.953125 -3.5625 C 3.835938 -3.820312 3.6875 -4.007812 3.5 -4.125 C 3.3125 -4.238281 3.070312 -4.296875 2.78125 -4.296875 C 2.363281 -4.296875 2.035156 -4.15625 1.796875 -3.875 C 1.554688 -3.601562 1.4375 -3.160156 1.4375 -2.546875 C 1.4375 -1.941406 1.554688 -1.5 1.796875 -1.21875 C 2.035156 -0.9375 2.363281 -0.796875 2.78125 -0.796875 C 3.445312 -0.796875 3.851562 -1.117188 4 -1.765625 L 4.09375 -1.765625 L 4.828125 -1.375 C 4.691406 -0.894531 4.453125 -0.53125 4.109375 -0.28125 C 3.773438 -0.0390625 3.332031 0.078125 2.78125 0.078125 Z M 2.78125 0.078125 "/></g></g></g><g fill="#231f20" fill-opacity="1"><g transform="translate(68.560273, 44.646032)"><g><path d="M 1.671875 -2.234375 L 1.671875 -0.84375 L 4.109375 -0.84375 L 4.109375 0 L 0.65625 0 L 0.65625 -5.09375 L 4.046875 -5.09375 L 4.046875 -4.25 L 1.671875 -4.25 L 1.671875 -3.0625 L 3.75 -3.0625 L 3.75 -2.234375 Z M 1.671875 -2.234375 "/></g></g></g><g fill="#231f20" fill-opacity="1"><g transform="translate(22.19599, 54.162698)"><g><path d="M 2.265625 0.078125 C 1.910156 0.078125 1.59375 0.0351562 1.3125 -0.046875 C 1.039062 -0.140625 0.8125 -0.253906 0.625 -0.390625 C 0.445312 -0.535156 0.304688 -0.695312 0.203125 -0.875 L 0.765625 -1.546875 L 0.84375 -1.546875 C 1 -1.316406 1.191406 -1.132812 1.421875 -1 C 1.660156 -0.863281 1.941406 -0.796875 2.265625 -0.796875 C 2.523438 -0.796875 2.722656 -0.851562 2.859375 -0.96875 C 3.003906 -1.082031 3.078125 -1.238281 3.078125 -1.4375 C 3.078125 -1.5625 3.050781 -1.660156 3 -1.734375 C 2.957031 -1.816406 2.882812 -1.890625 2.78125 -1.953125 C 2.6875 -2.015625 2.550781 -2.066406 2.375 -2.109375 L 1.71875 -2.25 C 1.257812 -2.351562 0.914062 -2.523438 0.6875 -2.765625 C 0.46875 -3.015625 0.359375 -3.332031 0.359375 -3.71875 C 0.359375 -4.007812 0.429688 -4.265625 0.578125 -4.484375 C 0.722656 -4.703125 0.929688 -4.867188 1.203125 -4.984375 C 1.484375 -5.109375 1.8125 -5.171875 2.1875 -5.171875 C 2.582031 -5.171875 2.921875 -5.117188 3.203125 -5.015625 C 3.484375 -4.910156 3.71875 -4.753906 3.90625 -4.546875 L 3.40625 -3.859375 L 3.328125 -3.859375 C 3.179688 -4.003906 3.015625 -4.113281 2.828125 -4.1875 C 2.640625 -4.269531 2.425781 -4.3125 2.1875 -4.3125 C 1.914062 -4.3125 1.707031 -4.257812 1.5625 -4.15625 C 1.414062 -4.0625 1.34375 -3.929688 1.34375 -3.765625 C 1.34375 -3.597656 1.394531 -3.46875 1.5 -3.375 C 1.601562 -3.28125 1.773438 -3.207031 2.015625 -3.15625 L 2.6875 -3.015625 C 3.1875 -2.910156 3.546875 -2.734375 3.765625 -2.484375 C 3.992188 -2.234375 4.109375 -1.90625 4.109375 -1.5 C 4.109375 -1.1875 4.035156 -0.910156 3.890625 -0.671875 C 3.753906 -0.429688 3.546875 -0.242188 3.265625 -0.109375 C 2.992188 0.015625 2.660156 0.078125 2.265625 0.078125 Z M 2.265625 0.078125 "/></g></g></g><g fill="#231f20" fill-opacity="1"><g transform="translate(28.400485, 54.162698)"><g><path d="M 4.09375 -5.09375 L 4.09375 -4.25 L 2.609375 -4.25 L 2.609375 0 L 1.609375 0 L 1.609375 -4.25 L 0.140625 -4.25 L 0.140625 -5.09375 Z M 4.09375 -5.09375 "/></g></g></g><g fill="#231f20" fill-opacity="1"><g transform="translate(34.451635, 54.162698)"><g><path d="M 2.78125 0.078125 C 2.3125 0.078125 1.894531 -0.015625 1.53125 -0.203125 C 1.175781 -0.398438 0.898438 -0.691406 0.703125 -1.078125 C 0.503906 -1.472656 0.40625 -1.960938 0.40625 -2.546875 C 0.40625 -3.128906 0.503906 -3.613281 0.703125 -4 C 0.898438 -4.394531 1.175781 -4.6875 1.53125 -4.875 C 1.894531 -5.070312 2.3125 -5.171875 2.78125 -5.171875 C 3.25 -5.171875 3.660156 -5.078125 4.015625 -4.890625 C 4.367188 -4.703125 4.644531 -4.410156 4.84375 -4.015625 C 5.050781 -3.617188 5.15625 -3.128906 5.15625 -2.546875 C 5.15625 -1.960938 5.050781 -1.472656 4.84375 -1.078125 C 4.644531 -0.691406 4.367188 -0.398438 4.015625 -0.203125 C 3.660156 -0.015625 3.25 0.078125 2.78125 0.078125 Z M 2.78125 -0.796875 C 3.207031 -0.796875 3.535156 -0.9375 3.765625 -1.21875 C 3.992188 -1.5 4.109375 -1.941406 4.109375 -2.546875 C 4.109375 -3.160156 3.992188 -3.601562 3.765625 -3.875 C 3.535156 -4.15625 3.207031 -4.296875 2.78125 -4.296875 C 2.34375 -4.296875 2.007812 -4.15625 1.78125 -3.875 C 1.550781 -3.601562 1.4375 -3.160156 1.4375 -2.546875 C 1.4375 -1.941406 1.550781 -1.5 1.78125 -1.21875 C 2.007812 -0.9375 2.34375 -0.796875 2.78125 -0.796875 Z M 2.78125 -0.796875 "/></g></g></g><g fill="#231f20" fill-opacity="1"><g transform="translate(41.830612, 54.162698)"><g><path d="M 0.65625 0 L 0.65625 -5.09375 L 2.703125 -5.09375 C 3.234375 -5.09375 3.632812 -4.972656 3.90625 -4.734375 C 4.175781 -4.492188 4.3125 -4.160156 4.3125 -3.734375 C 4.3125 -3.421875 4.226562 -3.164062 4.0625 -2.96875 C 3.90625 -2.769531 3.675781 -2.617188 3.375 -2.515625 L 3.375 -2.4375 C 3.53125 -2.375 3.65625 -2.269531 3.75 -2.125 C 3.851562 -1.988281 3.945312 -1.785156 4.03125 -1.515625 L 4.546875 0 L 3.515625 0 L 3.015625 -1.53125 C 2.960938 -1.675781 2.90625 -1.789062 2.84375 -1.875 C 2.78125 -1.96875 2.695312 -2.03125 2.59375 -2.0625 C 2.5 -2.101562 2.367188 -2.125 2.203125 -2.125 L 1.671875 -2.125 L 1.671875 0 Z M 2.59375 -2.921875 C 3.070312 -2.921875 3.3125 -3.148438 3.3125 -3.609375 C 3.3125 -4.066406 3.070312 -4.296875 2.59375 -4.296875 L 1.671875 -4.296875 L 1.671875 -2.921875 Z M 2.59375 -2.921875 "/></g></g></g><g fill="#231f20" fill-opacity="1"><g transform="translate(48.421953, 54.162698)"><g><path d="M 1.671875 -2.234375 L 1.671875 -0.84375 L 4.109375 -0.84375 L 4.109375 0 L 0.65625 0 L 0.65625 -5.09375 L 4.046875 -5.09375 L 4.046875 -4.25 L 1.671875 -4.25 L 1.671875 -3.0625 L 3.75 -3.0625 L 3.75 -2.234375 Z M 1.671875 -2.234375 "/></g></g></g></svg>